# xmcd
#
# Track frame offsets:
#	150
#	26026
#	41783
#	59688
#	74741
#	89270
#	101992
#	123242
#	142528
#	155210
#	172323
#	189686
#
# Disc length: 2717 seconds
#
# Revision: 1
# Processed by: cddbd v1.5.2PL0 Copyright (c) Steve Scherf et al.
# Submitted via: audiograbber 1.83.01
#
DISCID=ba0a9b0c
DTITLE=Joon Wolfsberg - Wonderland
DYEAR=2012
DGENRE=Country
TTITLE0=Big Fish - Wonderland (2012) - Joon Wolfsberg
TTITLE1=Darkness - Wonderland (2012) - Joon Wolfsberg
TTITLE2=Wonderland - Wonderland (2012) - Joon Wolfsberg
TTITLE3=Nothing to lose - Wonderland (2012) - Joon Wolfsberg
TTITLE4=Hang me up to dry - Wonderland (2012) - Joon Wolfsberg
TTITLE5=Love to laugh - Wonderland (2012) - Joon Wolfsberg
TTITLE6=I would die - Wonderland (2012) - Joon Wolfsberg
TTITLE7=Say yes - Wonderland (2012) - Joon Wolfsberg
TTITLE8=Free your mind - Wonderland (2012) - Joon Wolfsberg
TTITLE9=Painter - Wonderland (2012) - Joon Wolfsberg
TTITLE10=Can't get me down - Wonderland (2012) - Joon Wolfsberg
TTITLE11=Cash and Dylan - Wonderland (2012) - Joon Wolfsberg
EXTD=
EXTT0=
EXTT1=
EXTT2=
EXTT3=
EXTT4=
EXTT5=
EXTT6=
EXTT7=
EXTT8=
EXTT9=
EXTT10=
EXTT11=
PLAYORDER=
